<?xml version="1.0" standalone="no"?>
<!DOCTYPE svg PUBLIC "-//W3C//DTD SVG 20010904//EN"
 "http://www.w3.org/TR/2001/REC-SVG-20010904/DTD/svg10.dtd">
<svg version="1.0" xmlns="http://www.w3.org/2000/svg"
 width="260.000000pt" height="260.000000pt" viewBox="0 0 260.000000 260.000000"
 preserveAspectRatio="xMidYMid meet">
<metadata>
Created by potrace 1.11, written by Peter Selinger 2001-2013
</metadata>
<g transform="translate(0.000000,260.000000) scale(0.100000,-0.100000)"
fill="#000000" stroke="none">
<path d="M605 1672 c-3 -3 -5 -15 -5 -26 -1 -12 -14 -29 -32 -41 -35 -22 -65
-67 -71 -106 -2 -13 -9 -24 -16 -24 -19 0 -27 -22 -23 -60 3 -22 10 -35 19
-35 10 0 13 -9 11 -27 -2 -22 -8 -28 -28 -28 -20 0 -26 -6 -28 -27 -2 -19 -10
-28 -25 -30 -18 -2 -22 -9 -22 -43 0 -34 3 -40 23 -43 17 -3 22 -10 22 -33 0
-26 3 -29 30 -29 25 0 30 -4 30 -24 0 -15 -7 -26 -17 -28 -13 -2 -18 -14 -18
-46 0 -38 2 -42 25 -43 30 -1 307 -1 333 0 13 1 17 10 17 46 0 38 -3 45 -20
45 -15 0 -19 6 -18 25 2 20 8 25 30 25 27 0 32 7 29 43 -2 12 5 17 24 17 25 0
26 3 23 42 -2 35 -7 43 -26 48 -13 3 -23 8 -23 13 3 33 -1 44 -16 44 -38 0
-43 4 -41 28 2 17 8 25 20 25 15 0 18 9 18 45 0 41 -6 50 -31 47 -4 -1 -12 19
-19 43 -11 40 -61 105 -81 105 -4 0 -9 12 -11 27 -3 24 -7 28 -41 28 -20 1
-39 -1 -42 -3z"/>
<path d="M1067 1663 c-8 -15 -5 -278 4 -293 11 -20 11 -18 14 67 2 86 17 120
57 128 51 12 67 -14 70 -111 4 -112 23 -109 22 3 -1 81 -2 88 -28 110 -32 27
-50 29 -90 8 -15 -8 -29 -15 -30 -15 -1 0 -1 25 0 55 1 49 -7 69 -19 48z"/>
<path d="M1650 1610 l0 -61 -29 22 c-62 46 -141 -7 -141 -95 0 -44 22 -91 49
-106 31 -16 79 -12 101 10 l20 20 0 -20 c0 -11 5 -20 10 -20 6 0 10 58 10 155
0 97 -4 155 -10 155 -6 0 -10 -27 -10 -60z m-32 -60 c62 -58 15 -192 -60 -172
-42 11 -72 97 -49 141 29 54 71 66 109 31z"/>
<path d="M2317 1633 c-2 -5 -3 -18 -2 -30 1 -17 -4 -23 -19 -23 -21 -1 -21 -1
-1 -13 17 -10 20 -24 21 -101 1 -72 5 -92 19 -102 9 -7 24 -10 33 -7 12 5 11
8 -6 14 -23 9 -25 18 -23 133 0 34 5 52 18 62 17 13 17 13 1 14 -16 0 -24 23
-19 53 0 4 -3 7 -8 7 -6 0 -12 -3 -14 -7z"/>
<path d="M1800 1582 c-8 -3 -18 -10 -22 -16 -6 -8 -11 -7 -17 3 -5 7 -13 11
-18 8 -12 -8 -10 -206 2 -210 6 -1 10 26 11 65 0 76 17 116 51 124 23 6 30 19
16 27 -5 2 -15 2 -23 -1z"/>
<path d="M1900 1577 c-24 -8 -36 -19 -38 -34 -2 -13 1 -23 7 -23 6 0 11 6 11
14 0 23 56 41 86 27 54 -24 38 -66 -30 -77 -56 -8 -86 -31 -86 -64 0 -44 36
-65 102 -61 9 1 23 8 31 16 13 13 16 13 21 0 3 -8 13 -15 23 -15 13 0 14 3 5
12 -7 7 -12 43 -12 93 0 66 -4 85 -17 97 -26 23 -64 28 -103 15z m96 -134 c-6
-57 -70 -91 -108 -57 -38 35 -18 69 48 80 21 3 41 8 43 10 14 13 21 -1 17 -33z"/>
<path d="M2127 1570 c-20 -16 -25 -17 -21 -6 4 10 1 16 -9 16 -12 0 -15 -19
-16 -108 -1 -83 1 -109 11 -109 9 0 13 20 12 71 0 85 9 111 47 127 24 9 33 9
54 -5 24 -16 25 -21 25 -106 0 -53 4 -90 10 -90 11 0 12 19 10 120 -1 73 -15
96 -65 106 -22 4 -38 0 -58 -16z"/>
<path d="M1270 1578 c0 -2 18 -50 40 -107 22 -56 40 -107 40 -113 0 -6 -17
-27 -37 -46 l-38 -35 30 7 c37 9 39 12 98 160 49 126 52 136 38 136 -5 0 -24
-40 -42 -90 -18 -49 -36 -86 -40 -82 -4 4 -20 43 -37 87 -16 44 -35 81 -41 83
-6 2 -11 2 -11 0z"/>
<path d="M1440 1130 c0 -87 4 -140 10 -140 6 0 10 53 10 140 0 87 -4 140 -10
140 -6 0 -10 -53 -10 -140z"/>
<path d="M1780 1255 c0 -8 5 -15 10 -15 6 0 10 7 10 15 0 8 -4 15 -10 15 -5 0
-10 -7 -10 -15z"/>
<path d="M1706 1234 c-3 -9 -4 -20 0 -25 3 -5 -2 -12 -10 -15 -19 -7 -22 -25
-4 -21 9 1 12 -22 13 -79 1 -82 12 -114 41 -114 19 0 18 6 -4 28 -15 15 -17
32 -16 92 2 41 8 76 13 78 7 2 5 9 -3 18 -8 7 -12 23 -9 34 6 24 -12 27 -21 4z"/>
<path d="M1095 1193 c-31 -8 -45 -23 -45 -49 0 -25 33 -54 62 -54 25 0 66 -21
72 -37 8 -20 -30 -53 -59 -53 -15 0 -36 11 -49 25 -30 32 -39 32 -24 0 11 -24
23 -31 68 -40 29 -6 80 21 81 43 3 48 -8 60 -75 77 -47 13 -66 36 -47 59 19
22 68 20 88 -4 22 -25 33 -26 26 -1 -2 10 -16 24 -29 30 -26 11 -35 12 -69 4z"/>
<path d="M1270 1188 c-70 -37 -64 -172 9 -196 34 -11 89 1 106 24 18 24 29 77
21 108 -15 60 -83 92 -136 64z m87 -23 c45 -32 37 -136 -12 -155 -35 -13 -74
0 -90 31 -45 86 28 175 102 124z"/>
<path d="M1880 1188 c-63 -34 -67 -155 -6 -187 53 -28 116 -9 137 41 15 37 6
106 -18 130 -25 24 -81 32 -113 16z m87 -23 c46 -33 41 -125 -9 -151 -80 -41
-149 76 -83 141 28 28 61 32 92 10z"/>
<path d="M2096 1185 c-14 -8 -26 -10 -26 -4 0 5 -4 9 -10 9 -6 0 -10 -40 -10
-100 0 -119 16 -134 21 -20 4 85 19 109 66 110 36 0 53 -36 53 -117 0 -42 4
-73 10 -73 6 0 10 33 10 79 0 61 -4 84 -18 101 -22 27 -61 33 -96 15z"/>
<path d="M2263 1188 c-12 -6 -23 -19 -26 -29 -7 -26 29 -69 58 -69 82 0 104
-71 28 -86 -26 -5 -37 -1 -58 20 -15 15 -29 25 -31 23 -10 -9 10 -39 35 -51
51 -26 121 2 121 49 0 25 -29 55 -52 55 -8 0 -29 5 -47 11 -22 8 -31 17 -31
34 0 40 60 48 97 13 29 -27 40 -19 16 11 -21 25 -75 34 -110 19z"/>
<path d="M1500 1111 c0 -97 17 -126 74 -124 20 1 43 7 51 13 11 9 15 9 15 1 0
-6 5 -11 10 -11 6 0 10 40 10 100 0 60 -4 100 -10 100 -6 0 -10 -30 -10 -70 0
-62 -3 -74 -25 -95 -13 -14 -33 -25 -43 -25 -39 0 -50 32 -51 148 -1 23 -5 42
-11 42 -6 0 -10 -33 -10 -79z"/>
<path d="M1779 1180 c0 -5 -1 -23 -1 -40 0 -111 3 -150 12 -150 6 0 10 40 10
100 0 60 -4 100 -10 100 -5 0 -10 -4 -11 -10z"/>
</g>
</svg>
